{"title":"Knucklehead.2010.720p.BRRip.H264.Feel-Free","uid":5973129,"size":1499864080,"categoryP":"video","categoryS":"hd___movies","magnet":"?xt=urn:btih:86119b4ea371fa27ea6ab45a756ddf1eb5513a64&amp;dn=Knucklehead.2010.720p.BRRip.H264.Feel-Free&amp;tr=udp%3A%2F%2Ftracker.openbittorrent.com%3A80&amp;tr=udp%3A%2F%2Fopen.demonii.com%3A1337&amp;tr=udp%3A%2F%2Ftracker.coppersurfer.tk%3A6969&amp;tr=udp%3A%2F%2Fexodus.desync.com%3A6969","seeders":0,"leechers":1,"uploader":"neon","files":-1,"time":1290364202,"description":"\n\nGenre:Comedy | Drama\nLanguage:English\n &lt;a href=&quot; http://www.imdb.com/title/tt1524131/&quot; rel=&quot;nofollow&quot; target=&quot;_NEW&quot;&gt; http://www.imdb.com/title/tt1524131/&lt;/a&gt;\nSource:720p.BluRay.x264-aAF\n\nGeneral\nComplete name :Knucklehead.2010.720p.BRRip.H264.Feel-Free\nFormat : MPEG-4\nFormat profile : Base Media\nCodec ID : mp42\nFile size : 1.39 GiB\nDuration : 1h 40mn\nOverall bit rate : 1 987 Kbps\nVideo #1\nCodec ID : avc1\nCodec ID/Info : Advanced Video Coding\nDuration : 1h 40mn\nBit rate mode : Variable\nBit rate : 1 505 Kbps\nWidth : 1 280 pixels\nHeight : 696 pixels\nDisplay aspect ratio : 16:9\nFrame rate mode : Constant\nFrame rate : 23.976 fps\nResolution : 24 bits\nColorimetry : 4:2:0\nScan type : Progressive\nBits/(Pixel*Frame) : 0.070\nStream size : 1.05 GiB (76%)\nAudio #2\nID : 2\nFormat : AAC\nFormat/Info : Advanced Audio Codec\nFormat version : Version 4\nFormat profile : LC\nFormat settings, SBR : No\nCodec ID : 40\nDuration : 1h 40mn\nBit rate mode : Constant\nBit rate : 477 Kbps\nNominal bit rate : 480 Kbps\nChannel(s) : 6 channels\nChannel positions : Front: L C R, Rear: L R, LFE\nSampling rate : 48.0 KHz\nResolution : 16 bits\nStream size : 342 MiB (24%)\nPlot:\nAfter con artist Eddie Sullivan (Feuerstein) incurs a large debt with a local criminal ringleader, he creates a get-rich-quick scheme and enlists a sweet gentle giant named Walter (Wight) as his unwitting accomplice. Walter's orphanage -- the only home he's ever known -- also needs funds desperately\n\n","torrent":{"xt":"urn:btih:86119b4ea371fa27ea6ab45a756ddf1eb5513a64","amp;dn":"Knucklehead.2010.720p.BRRip.H264.Feel-Free","amp;tr":["udp%3A%2F%2Ftracker.openbittorrent.com%3A80","udp%3A%2F%2Fopen.demonii.com%3A1337","udp%3A%2F%2Ftracker.coppersurfer.tk%3A6969","udp%3A%2F%2Fexodus.desync.com%3A6969"],"infoHash":"86119b4ea371fa27ea6ab45a756ddf1eb5513a64","infoHashBuffer":{"type":"Buffer","data":[134,17,155,78,163,113,250,39,234,106,180,90,117,109,223,30,181,81,58,100]},"announce":[],"urlList":[]}}